<svg width="36" height="29" viewBox="0 0 36 29" fill="none" xmlns="http://www.w3.org/2000/svg">
<path d="M10.3522 10.3442C10.5778 10.1238 10.8837 10 11.2026 10C11.5216 10 11.8275 10.1238 12.053 10.3442L18.0073 16.1627L23.9615 10.3442C24.1883 10.13 24.4922 10.0116 24.8076 10.0142C25.123 10.0169 25.4247 10.1405 25.6477 10.3585C25.8707 10.5764 25.9972 10.8712 26 11.1794C26.0027 11.4876 25.8815 11.7846 25.6623 12.0063L18.8577 18.6558C18.6321 18.8762 18.3262 19 18.0073 19C17.6883 19 17.3824 18.8762 17.1568 18.6558L10.3522 12.0063C10.1267 11.7858 10 11.4869 10 11.1752C10 10.8635 10.1267 10.5646 10.3522 10.3442Z" fill="#2F2F2F"/>
</svg>
